<?xml version="1.0" standalone="no"?>
<!DOCTYPE svg PUBLIC "-//W3C//DTD SVG 20010904//EN"
 "http://www.w3.org/TR/2001/REC-SVG-20010904/DTD/svg10.dtd">
<svg version="1.0" xmlns="http://www.w3.org/2000/svg"
 width="584.000000pt" height="489.000000pt" viewBox="0 0 584.000000 489.000000"
 preserveAspectRatio="xMidYMid meet">

<g transform="translate(0.000000,489.000000) scale(0.100000,-0.100000)"
fill="#000000" stroke="none">
<path d="M1550 4291 c-457 -97 -795 -449 -884 -921 -20 -105 -21 -336 -1 -455
117 -714 677 -1340 1655 -1853 127 -66 361 -172 381 -172 21 0 235 97 384 174
431 224 752 452 1041 740 346 346 536 688 610 1101 23 123 23 354 1 465 -97
492 -460 855 -929 930 -118 19 -320 8 -438 -24 -249 -68 -520 -265 -637 -463
-14 -24 -28 -43 -33 -43 -4 0 -27 30 -51 67 -83 127 -234 261 -390 347 -202
111 -487 154 -709 107z m399 -761 c41 -11 85 -51 101 -91 7 -16 21 -31 31 -34
11 -4 40 -22 64 -41 l45 -34 510 0 510 0 55 37 c37 25 58 47 66 70 5 17 26 45
44 62 40 35 94 46 201 39 89 -6 111 -22 145 -105 14 -34 42 -74 74 -107 87
-87 115 -159 174 -458 28 -142 51 -260 51 -263 0 -3 -12 -5 -26 -5 -37 0 -62
-15 -125 -77 l-56 -54 -44 46 c-87 92 -159 111 -217 57 -64 -60 -51 -129 43
-222 l54 -53 -59 -54 c-64 -58 -86 -104 -76 -156 6 -31 5 -30 -22 13 -16 25
-60 103 -97 174 l-68 129 27 24 c15 12 33 23 40 23 7 0 20 8 30 19 23 25 8 63
-47 119 -47 48 -57 51 -57 18 0 -14 -4 -28 -10 -31 -5 -3 -10 1 -10 10 0 9 -4
14 -9 11 -5 -3 -12 14 -15 38 -13 87 -130 236 -184 236 -11 0 -5 -7 14 -19 45
-27 64 -59 64 -106 0 -30 -6 -47 -22 -62 -31 -28 -75 -49 -120 -57 -32 -6 -41
-3 -69 22 -27 24 -33 37 -37 83 -3 45 0 59 19 83 12 15 36 34 53 42 19 8 24
13 14 14 -10 0 -36 -16 -58 -36 -73 -66 -75 -161 -5 -231 38 -38 27 -58 -12
-22 -36 34 -53 72 -54 121 -1 42 -1 42 -10 13 -12 -38 -3 -79 27 -133 38 -65
79 -81 213 -83 89 -1 109 -4 101 -15 -8 -9 -7 -15 5 -21 13 -8 11 -15 -14 -55
-34 -53 -97 -94 -164 -107 -42 -8 -52 -6 -92 20 -52 33 -101 97 -115 151 l-11
38 -117 0 -117 0 -19 -52 c-20 -57 -109 -162 -101 -120 8 45 -2 52 -53 37
-108 -33 -224 -28 -310 14 l-35 16 6 132 5 131 -39 -13 c-22 -8 -61 -17 -87
-21 l-48 -6 -23 -67 c-62 -178 -205 -473 -309 -638 l-58 -91 -58 23 c-69 28
-91 47 -120 100 -18 35 -21 55 -20 160 1 128 27 297 104 686 72 360 83 390
175 504 23 28 49 74 59 104 23 71 44 101 81 117 35 16 166 18 214 4z m1780
-1015 l66 -64 -65 -66 -64 -65 -54 53 c-66 64 -86 104 -71 144 14 39 48 63 88
63 28 0 44 -11 100 -65z m336 41 c34 -34 42 -72 21 -110 -9 -17 -106 -120
-215 -228 -191 -192 -199 -198 -238 -198 -81 0 -126 75 -85 142 12 18 108 120
215 226 190 188 195 192 236 192 31 0 48 -6 66 -24z m12 -284 l9 -73 -41 41
c-38 37 -65 51 -65 32 0 -4 25 -32 55 -62 61 -61 74 -94 51 -139 -19 -36 -44
-51 -86 -51 -25 0 -45 13 -94 60 -35 33 -66 60 -69 60 -22 0 1 -35 54 -84 55
-52 64 -56 107 -56 27 0 57 7 69 15 l22 16 -14 -48 c-27 -91 -148 -163 -275
-163 -92 0 -191 76 -264 202 l-20 33 33 -27 c26 -22 43 -28 82 -28 l50 0 187
184 c115 114 189 180 193 173 4 -7 11 -45 16 -85z m-2231 -277 c-11 -8 -16
-15 -12 -15 4 0 -11 -22 -34 -50 -23 -27 -47 -50 -52 -50 -6 0 0 9 13 21 13
12 23 25 22 30 -2 5 8 16 22 25 14 9 23 20 20 24 -3 5 3 13 12 19 26 15 31 13
9 -4z m-209 -171 c-3 -3 -12 -4 -19 -1 -8 3 -5 6 6 6 11 1 17 -2 13 -5z"/>
<path d="M3473 3335 c-33 -14 -58 -48 -49 -68 2 -7 5 -6 5 4 2 26 39 52 73 51
69 -2 98 -81 46 -124 -27 -24 -59 -23 -94 4 l-29 22 24 -27 c50 -55 141 -22
141 50 0 51 -16 80 -51 92 -17 6 -32 11 -33 11 -1 -1 -15 -7 -33 -15z"/>
<path d="M1842 3258 c-7 -7 -12 -36 -12 -65 0 -44 5 -58 28 -85 19 -21 34 -29
45 -25 51 19 79 154 38 177 -27 14 -84 13 -99 -2z m82 -4 c27 -10 21 -95 -8
-123 -21 -20 -25 -20 -39 -7 -8 8 -17 13 -20 10 -3 -3 -9 20 -12 51 -6 44 -4
59 6 66 16 10 51 12 73 3z"/>
<path d="M3229 3111 c-58 -58 -23 -141 61 -141 68 0 107 61 75 117 -14 26 -15
26 -9 3 12 -41 6 -64 -21 -87 -34 -30 -60 -29 -90 2 -26 25 -34 78 -15 90 6 4
10 -12 10 -40 l0 -46 48 3 47 3 1 50 1 51 -33 -4 c-46 -6 -65 3 -34 16 19 8
21 11 7 11 -10 1 -32 -12 -48 -28z m91 -56 c0 -31 -3 -35 -25 -35 -24 0 -45
25 -45 54 0 12 10 16 35 16 33 0 35 -2 35 -35z"/>
<path d="M3643 3116 c-22 -19 -28 -32 -28 -65 0 -53 21 -73 83 -79 44 -4 51
-2 70 23 28 35 28 76 1 106 l-21 24 16 -25 c32 -49 9 -103 -49 -115 l-30 -7
34 19 c40 21 54 51 38 83 -29 57 -93 51 -114 -10 -8 -24 -12 -29 -12 -14 -1
28 34 72 62 77 l22 4 -22 2 c-12 0 -34 -10 -50 -23z m91 -32 c21 -21 20 -37
-3 -58 -25 -23 -59 -13 -67 20 -12 46 37 72 70 38z"/>
<path d="M1675 3090 c-4 -12 -4 -39 0 -60 l7 -40 64 0 c57 0 67 3 96 30 l33
30 -33 30 c-29 27 -39 30 -96 30 -56 0 -65 -3 -71 -20z m135 -12 c26 -28 25
-32 -6 -57 -18 -14 -41 -21 -70 -21 l-44 0 0 50 0 50 50 0 c38 0 54 -5 70 -22z"/>
<path d="M1963 3090 c-69 -42 -22 -100 82 -100 68 0 75 6 75 60 0 53 -8 60
-69 60 -38 0 -66 -6 -88 -20z m143 -15 c3 -14 3 -36 0 -50 -5 -21 -12 -25 -44
-25 -56 0 -87 20 -85 55 3 36 17 45 75 45 42 0 48 -3 54 -25z"/>
<path d="M2830 3065 c0 -49 0 -49 50 -36 19 6 55 15 79 21 23 6 41 14 38 16
-5 5 -145 43 -159 44 -5 0 -8 -20 -8 -45z m74 19 c20 -3 36 -10 36 -14 0 -4
-16 -11 -36 -14 -19 -4 -42 -10 -50 -13 -10 -4 -14 3 -14 27 0 24 4 31 14 27
8 -3 31 -9 50 -13z"/>
<path d="M2382 3063 l-2 -43 65 0 65 0 0 40 0 40 -42 -2 -43 -1 38 -4 c32 -4
37 -8 37 -29 0 -21 -4 -24 -39 -24 -22 0 -46 -3 -55 -6 -11 -4 -16 3 -19 33
l-4 38 -1 -42z"/>
<path d="M1861 2993 c-27 -33 -33 -58 -29 -114 l3 -44 60 0 60 0 3 49 c4 56
-12 100 -42 121 -28 20 -31 19 -55 -12z m61 -40 c13 -11 18 -30 18 -65 l0 -49
-47 3 -48 3 1 54 c2 69 34 92 76 54z"/>
<path d="M3445 2905 c-14 -13 -25 -32 -25 -42 1 -15 3 -14 13 5 l13 23 22 -24
22 -24 -20 -18 c-11 -10 -18 -20 -15 -23 3 -3 14 3 25 13 19 17 21 17 40 0 26
-24 39 -11 15 15 -18 20 -18 21 1 35 27 20 33 19 40 -11 14 -56 -60 -104 -116
-74 -11 6 -20 8 -20 5 0 -3 15 -12 34 -20 26 -11 41 -12 65 -4 38 13 51 35 51
84 0 76 -91 114 -145 60z m88 -2 c4 -3 0 -15 -10 -25 -15 -17 -17 -17 -35 -2
-10 10 -18 21 -18 26 0 10 54 11 63 1z"/>
<path d="M2407 2855 c38 -16 62 -50 70 -98 8 -50 -42 -104 -116 -123 -65 -17
-100 -3 -125 50 -27 58 -16 113 32 155 26 23 26 23 2 9 -41 -25 -70 -76 -70
-124 0 -56 11 -83 50 -121 34 -33 28 -52 -8 -27 -28 20 -54 68 -63 119 l-6 40
-2 -48 c-2 -83 60 -169 132 -182 37 -7 212 1 227 10 24 15 7 -16 -22 -40 -26
-21 -28 -24 -8 -15 14 7 40 26 58 43 17 17 32 27 32 23 0 -5 6 -4 13 1 6 6 54
13 106 17 52 3 95 7 97 9 1 1 0 15 -3 30 -5 26 -9 28 -36 23 -16 -3 -60 -6
-98 -6 -52 0 -69 -3 -69 -14 0 -8 -6 -16 -12 -19 -9 -3 -14 10 -15 44 -6 110
-113 261 -185 259 -7 -1 1 -7 19 -15z"/>
<path d="M2631 2843 l-1 -33 65 0 65 0 -1 33 c-1 23 -3 26 -6 10 -3 -16 -11
-23 -27 -23 -13 0 -37 -3 -54 -6 -28 -6 -31 -4 -35 22 -4 28 -4 28 -6 -3z"/>
<path d="M2652 2720 c0 -14 2 -19 5 -12 2 6 2 18 0 25 -3 6 -5 1 -5 -13z"/>
<path d="M2737 2720 c-3 -11 -1 -20 4 -20 5 0 9 9 9 20 0 11 -2 20 -4 20 -2 0
-6 -9 -9 -20z"/>
<path d="M2653 2663 c26 -2 68 -2 95 0 26 2 4 3 -48 3 -52 0 -74 -1 -47 -3z"/>
<path d="M3705 2500 c-3 -5 1 -10 10 -10 9 0 13 5 10 10 -3 6 -8 10 -10 10 -2
0 -7 -4 -10 -10z"/>
<path d="M3660 2450 c0 -5 5 -10 10 -10 6 0 10 5 10 10 0 6 -4 10 -10 10 -5 0
-10 -4 -10 -10z"/>
<path d="M3705 2450 c-3 -5 1 -10 10 -10 9 0 13 5 10 10 -3 6 -8 10 -10 10 -2
0 -7 -4 -10 -10z"/>
<path d="M3750 2450 c0 -5 5 -10 10 -10 6 0 10 5 10 10 0 6 -4 10 -10 10 -5 0
-10 -4 -10 -10z"/>
<path d="M3630 2420 c0 -5 5 -10 10 -10 6 0 10 5 10 10 0 6 -4 10 -10 10 -5 0
-10 -4 -10 -10z"/>
<path d="M3680 2420 c0 -5 5 -10 10 -10 6 0 10 5 10 10 0 6 -4 10 -10 10 -5 0
-10 -4 -10 -10z"/>
<path d="M3730 2420 c0 -5 5 -10 10 -10 6 0 10 5 10 10 0 6 -4 10 -10 10 -5 0
-10 -4 -10 -10z"/>
<path d="M3600 2400 c0 -5 5 -10 10 -10 6 0 10 5 10 10 0 6 -4 10 -10 10 -5 0
-10 -4 -10 -10z"/>
<path d="M3630 2374 c0 -10 28 -34 41 -34 7 0 4 9 -9 20 -21 20 -32 25 -32 14z"/>
<path d="M3680 2370 c0 -5 5 -10 10 -10 6 0 10 5 10 10 0 6 -4 10 -10 10 -5 0
-10 -4 -10 -10z"/>
<path d="M3757 2352 l-77 -78 53 -52 c29 -29 55 -52 59 -52 4 0 41 34 83 76
l76 77 -52 53 c-30 30 -56 54 -59 54 -3 0 -40 -35 -83 -78z m125 21 c21 -20
38 -42 38 -48 0 -6 -29 -40 -65 -75 l-65 -64 -40 39 c-22 21 -40 44 -40 49 0
10 120 136 129 136 3 0 22 -17 43 -37z"/>
<path d="M3950 2250 c0 -5 5 -10 10 -10 6 0 10 5 10 10 0 6 -4 10 -10 10 -5 0
-10 -4 -10 -10z"/>
<path d="M3930 2220 c0 -5 5 -10 10 -10 6 0 10 5 10 10 0 6 -4 10 -10 10 -5 0
-10 -4 -10 -10z"/>
<path d="M3980 2220 c0 -5 5 -10 10 -10 6 0 10 5 10 10 0 6 -4 10 -10 10 -5 0
-10 -4 -10 -10z"/>
<path d="M3905 2200 c-3 -5 -1 -10 4 -10 6 0 11 5 11 10 0 6 -2 10 -4 10 -3 0
-8 -4 -11 -10z"/>
<path d="M3955 2200 c-3 -5 -1 -10 4 -10 6 0 11 5 11 10 0 6 -2 10 -4 10 -3 0
-8 -4 -11 -10z"/>
<path d="M4010 2200 c0 -5 5 -10 11 -10 5 0 7 5 4 10 -3 6 -8 10 -11 10 -2 0
-4 -4 -4 -10z"/>
<path d="M3880 2169 c0 -5 5 -7 10 -4 6 3 10 8 10 11 0 2 -4 4 -10 4 -5 0 -10
-5 -10 -11z"/>
<path d="M3930 2170 c0 -5 5 -10 10 -10 6 0 10 5 10 10 0 6 -4 10 -10 10 -5 0
-10 -4 -10 -10z"/>
<path d="M3980 2169 c0 -5 5 -7 10 -4 6 3 10 8 10 11 0 2 -4 4 -10 4 -5 0 -10
-5 -10 -11z"/>
<path d="M3852 2151 c2 -7 7 -12 11 -12 12 1 9 15 -3 20 -7 2 -11 -2 -8 -8z"/>
<path d="M3905 2150 c-3 -5 -1 -10 4 -10 6 0 11 5 11 10 0 6 -2 10 -4 10 -3 0
-8 -4 -11 -10z"/>
<path d="M3955 2150 c-3 -5 -1 -10 4 -10 6 0 11 5 11 10 0 6 -2 10 -4 10 -3 0
-8 -4 -11 -10z"/>
<path d="M3880 2124 c0 -10 31 -36 37 -31 3 3 -2 13 -10 22 -16 15 -27 19 -27
9z"/>
</g>
</svg>
